<svg id="svg" xmlns="http://www.w3.org/2000/svg" xmlns:xlink="http://www.w3.org/1999/xlink" width="400" height="400" viewBox="0, 0, 400,400"><g id="svgg"><path id="path0" d="M97.910 96.224 C 95.792 97.373,95.810 97.211,95.670 117.400 C 95.516 139.765,95.630 141.692,97.210 143.272 C 99.183 145.244,103.106 144.710,104.497 142.279 C 104.869 141.630,105.052 137.166,105.200 125.200 L 105.400 109.000 109.310 124.535 C 114.240 144.127,114.378 144.400,119.326 144.400 C 123.776 144.400,123.732 144.495,128.858 124.200 L 133.000 107.800 133.200 125.135 L 133.400 142.470 134.522 143.435 C 136.810 145.402,140.692 144.514,141.842 141.761 C 142.673 139.772,142.663 100.204,141.832 98.214 C 140.932 96.061,139.564 95.600,134.074 95.600 C 126.887 95.600,127.855 94.049,122.589 113.987 C 120.702 121.130,119.115 127.018,119.062 127.071 C 119.009 127.124,117.302 120.842,115.267 113.111 C 111.261 97.885,110.865 96.740,109.362 96.055 C 107.845 95.364,99.262 95.490,97.910 96.224 M177.055 114.655 C 176.184 115.525,176.000 116.074,176.000 117.800 C 176.000 119.526,176.184 120.075,177.055 120.945 L 178.109 122.000 250.200 122.000 L 322.291 122.000 323.345 120.945 C 324.216 120.075,324.400 119.526,324.400 117.800 C 324.400 116.074,324.216 115.525,323.345 114.655 L 322.291 113.600 250.200 113.600 L 178.109 113.600 177.055 114.655 M154.497 135.330 C 151.564 136.959,151.339 141.921,154.120 143.617 C 158.818 146.481,164.266 141.969,161.820 137.240 C 160.654 134.984,156.888 134.002,154.497 135.330 M98.355 156.189 C 96.227 157.368,96.200 157.670,96.200 180.200 C 96.200 205.125,96.051 204.413,101.274 204.391 C 105.690 204.373,106.166 203.237,106.334 192.300 L 106.468 183.600 109.450 183.600 C 114.814 183.600,116.243 184.890,122.734 195.587 C 128.138 204.494,130.215 205.964,134.364 203.819 C 138.335 201.765,134.417 191.841,126.796 184.652 L 124.105 182.113 126.161 181.465 C 137.794 177.798,138.997 161.989,128.035 156.848 L 125.800 155.800 112.600 155.705 C 101.699 155.627,99.218 155.711,98.355 156.189 M122.272 164.237 C 126.348 167.261,126.153 172.845,121.899 174.931 C 120.267 175.731,114.908 176.372,109.700 176.389 L 106.400 176.400 106.400 169.775 L 106.400 163.151 113.772 163.275 C 120.516 163.389,121.240 163.471,122.272 164.237 M177.055 177.055 C 176.184 177.925,176.000 178.474,176.000 180.200 C 176.000 181.926,176.184 182.475,177.055 183.345 L 178.109 184.400 250.200 184.400 L 322.291 184.400 323.345 183.345 C 324.216 182.475,324.400 181.926,324.400 180.200 C 324.400 178.474,324.216 177.925,323.345 177.055 L 322.291 176.000 250.200 176.000 L 178.109 176.000 177.055 177.055 M146.897 195.330 C 143.964 196.959,143.739 201.921,146.520 203.617 C 151.218 206.481,156.666 201.969,154.220 197.240 C 153.054 194.984,149.288 194.002,146.897 195.330 M98.047 215.452 C 96.034 216.862,96.000 217.260,96.001 239.287 C 96.001 262.016,95.988 261.892,98.600 263.200 C 100.533 264.167,126.882 264.083,128.672 263.104 C 130.937 261.865,131.217 258.513,129.207 256.700 L 127.987 255.600 117.005 255.600 L 106.022 255.600 105.911 236.367 L 105.800 217.134 104.494 215.967 C 102.940 214.579,99.667 214.317,98.047 215.452 M177.055 237.055 C 176.184 237.925,176.000 238.474,176.000 240.200 C 176.000 241.926,176.184 242.475,177.055 243.345 L 178.109 244.400 250.200 244.400 L 322.291 244.400 323.345 243.345 C 324.216 242.475,324.400 241.926,324.400 240.200 C 324.400 238.474,324.216 237.925,323.345 237.055 L 322.291 236.000 250.200 236.000 L 178.109 236.000 177.055 237.055 M139.297 255.330 C 136.364 256.959,136.139 261.921,138.920 263.617 C 143.618 266.481,149.066 261.969,146.620 257.240 C 145.454 254.984,141.688 254.002,139.297 255.330 " stroke="none" fill="#000000" fill-rule="evenodd"></path></g></svg>